<svg width="21" height="16" viewBox="0 0 21 16" fill="none" xmlns="http://www.w3.org/2000/svg">
<path d="M19.4496 2.76794C19.1881 2.94897 18.9266 3.09983 18.6324 3.25069C18.6651 3.49206 18.6651 3.76361 18.6651 4.03516C18.6651 7.53509 17.0307 10.7031 14.4484 12.9057C12.4218 14.2936 9.90486 15.1082 7.15911 15.1082C4.77292 15.1082 2.55017 14.4746 0.654297 13.3884C1.04655 13.4488 1.4388 13.479 1.86373 13.479C3.75961 13.479 5.49205 12.8755 6.86492 11.8798C5.0998 11.8497 3.59617 10.7635 3.07317 9.25489C3.30198 9.28506 3.56348 9.31523 3.82498 9.31523C4.18455 9.31523 4.51142 9.28506 4.8383 9.19455C4.08648 9.04369 3.43273 8.68162 2.90973 8.19887C2.15792 7.53509 1.7003 6.56959 1.7003 5.54375C1.7003 5.51358 1.7003 5.51358 1.7003 5.48341C2.19061 5.72478 2.71361 5.87564 3.30198 5.93598C2.71361 5.51358 2.2233 4.94031 1.9618 4.27653C1.79836 3.85412 1.7003 3.40155 1.7003 2.94897C1.7003 2.76794 1.7003 2.55673 1.73298 2.3757C1.83105 1.86278 2.02717 1.38003 2.28867 0.987797C2.58286 1.28952 2.90973 1.59123 3.2693 1.89295C3.43273 2.04381 3.62886 2.1645 3.7923 2.31536C4.80561 3.06966 5.94967 3.67309 7.15911 4.12567C7.32255 4.18601 7.4533 4.24636 7.61673 4.27653C8.17242 4.45756 8.72811 4.60842 9.31648 4.69894C9.44723 4.72911 9.57798 4.75928 9.70873 4.75928C9.77411 4.75928 9.8068 4.78945 9.87217 4.78945C10.1337 4.81962 10.3625 4.8498 10.624 4.87997C10.5586 4.60842 10.4932 4.3067 10.4932 3.97481C10.4932 2.70759 11.1797 1.59123 12.2257 0.927453C12.291 0.867109 12.3564 0.836937 12.4545 0.806766C12.4545 0.806766 12.4872 0.806765 12.4872 0.836937V0.806766C13.1082 0.474875 13.7947 0.263672 14.5792 0.263672C15.7559 0.263672 16.8019 0.71625 17.5537 1.47055C17.8152 1.4102 18.1094 1.34986 18.3709 1.28952C18.6651 1.199 18.9266 1.13866 19.1881 1.01797C19.515 0.897281 19.8092 0.746422 20.1034 0.595563C19.9399 1.04814 19.6784 1.47055 19.3515 1.83261C19.1227 2.07398 18.8612 2.28519 18.5997 2.49639C18.5344 2.52656 18.469 2.58691 18.4036 2.61708C18.3709 2.61708 18.3709 2.61708 18.3382 2.61708C18.3382 2.61708 18.3382 2.61708 18.3382 2.64725L18.3709 2.61708C18.4363 2.61708 18.5017 2.58691 18.5997 2.58691C18.8939 2.55673 19.1554 2.49639 19.4496 2.43605C19.7438 2.3757 20.038 2.28519 20.2995 2.19467C20.0053 2.3757 19.7111 2.55673 19.4496 2.76794Z" fill="white"/>
</svg>
