<svg width="275" height="92" viewBox="0 0 275 92" fill="none" xmlns="http://www.w3.org/2000/svg">
<path d="M41.2174 40.7921H24.0242V45.6143H41.2174V64.9153H14.1996L4.375 55.2662V4.60547H24.0242V21.4917H41.2174V40.7921V40.7921Z" fill="#6441A5"/>
<path d="M115.804 65.2166H56.8559L47.0312 55.5675V21.793H66.6805V45.9156H71.593V21.793H91.2423V45.9156H96.1543V21.793H115.804V65.2166Z" fill="#6441A5"/>
<path d="M139.962 21.793H120.312V65.214H139.962V21.793Z" fill="#6441A5"/>
<path d="M139.962 4.60547H120.312V16.6668H139.962V4.60547Z" fill="#6441A5"/>
<path d="M181.217 40.7921H164.024V45.6143H181.217V64.9153H154.199L144.375 55.2662V4.60547H164.024V21.4917H181.217V40.7921V40.7921Z" fill="#6441A5"/>
<path d="M226.33 41.0935H206.68V45.9156H226.33V65.2166H196.856L187.031 55.5675V31.4443L196.856 21.793H226.33V41.0935V41.0935Z" fill="#6441A5"/>
<path d="M274.992 64.9153H255.342V40.7921H250.43V64.9153H230.781V4.60547H250.43V21.4917H265.167L274.992 31.143V64.9153V64.9153Z" fill="#6441A5"/>
<path d="M267.719 17.1948H255.439V0.308594H228.473L216.071 17.1948H194.035L186.666 24.4312V17.1948H169.474V0.308594H115.439V17.1948H39.4209L27.0178 0.308594H0V58.2036L34.3859 91.9754H68.7717V82.3262L78.5963 91.9754H144.913V82.3262L154.737 91.9754H186.666V82.3262L196.491 91.9754H257.895L280 70.2649V29.2561L267.719 17.1948V17.1948ZM41.7545 41.3174H24.5612V46.1417H41.7545V65.4401H14.7366L4.91203 55.7909V5.13291H24.5612V22.0191H41.7545V41.3174V41.3174ZM115.439 65.4401H56.4911L46.6665 55.7909V22.0191H66.3157V46.1417H71.2283V22.0191H90.8775V46.1417H95.7895V22.0191H115.439V65.4401ZM140 65.4401H120.351V22.0191H140V65.4401ZM140 17.1948H120.351V5.13291H140V17.1948ZM181.754 41.3174H164.561V46.1417H181.754V65.4401H154.737L144.913 55.7909V5.13291H164.561V22.0191H181.754V41.3174V41.3174ZM225.965 41.3174H206.316V46.1417H225.965V65.4401H196.491L186.666 55.7909V31.6682L196.491 22.0191H225.965V41.3174V41.3174ZM275.088 65.4401H255.439V41.3174H250.526V65.4401H230.877V5.13291H250.526V22.0191H265.263L275.088 31.6682V65.4401V65.4401Z" fill="white"/>
</svg>
