<svg width="275" height="77" viewBox="0 0 275 77" fill="none" xmlns="http://www.w3.org/2000/svg">
<path d="M41.2174 33.5997H24.0242V37.5977H41.2174V53.5999H14.1996L4.375 45.5999V3.59766H24.0242V17.5978H41.2174V33.5997V33.5997Z" fill="#6441A5"/>
<path d="M115.804 53.8498H56.8559L47.0312 45.8497V17.8477H66.6805V37.8475H71.593V17.8477H91.2423V37.8475H96.1543V17.8477H115.804V53.8498Z" fill="#6441A5"/>
<path d="M139.962 17.8477H120.312V53.8475H139.962V17.8477Z" fill="#6441A5"/>
<path d="M139.962 3.59766H120.312V13.5976H139.962V3.59766Z" fill="#6441A5"/>
<path d="M181.217 33.5997H164.024V37.5977H181.217V53.5999H154.199L144.375 45.5999V3.59766H164.024V17.5978H181.217V33.5997V33.5997Z" fill="#6441A5"/>
<path d="M226.33 33.8495H206.68V37.8475H226.33V53.8498H196.856L187.031 45.8497V25.8495L196.856 17.8477H226.33V33.8495V33.8495Z" fill="#6441A5"/>
<path d="M274.992 53.5999H255.342V33.5997H250.43V53.5999H230.781V3.59766H250.43V17.5978H265.167L274.992 25.5996V53.5999V53.5999Z" fill="#6441A5"/>
<path d="M267.719 14.0353H255.439V0.0351562H228.473L216.071 14.0353H194.035L186.666 20.035V14.0353H169.474V0.0351562H115.439V14.0353H39.4209L27.0178 0.0351562H0V48.0353L34.3859 76.0352H68.7717V68.0351L78.5963 76.0352H144.913V68.0351L154.737 76.0352H186.666V68.0351L196.491 76.0352H257.895L280 58.0352V24.0352L267.719 14.0353V14.0353ZM41.7545 34.0351H24.5612V38.0349H41.7545V54.035H14.7366L4.91203 46.0349V4.03494H24.5612V18.0351H41.7545V34.0351V34.0351ZM115.439 54.035H56.4911L46.6665 46.0349V18.0351H66.3157V38.0349H71.2283V18.0351H90.8775V38.0349H95.7895V18.0351H115.439V54.035ZM140 54.035H120.351V18.0351H140V54.035ZM140 14.0353H120.351V4.03494H140V14.0353ZM181.754 34.0351H164.561V38.0349H181.754V54.035H154.737L144.913 46.0349V4.03494H164.561V18.0351H181.754V34.0351V34.0351ZM225.965 34.0351H206.316V38.0349H225.965V54.035H196.491L186.666 46.0349V26.0351L196.491 18.0351H225.965V34.0351V34.0351ZM275.088 54.035H255.439V34.0351H250.526V54.035H230.877V4.03494H250.526V18.0351H265.263L275.088 26.0351V54.035V54.035Z" fill="white"/>
</svg>
